<svg width="232" height="232" viewBox="0 0 232 232" fill="none" xmlns="http://www.w3.org/2000/svg">
<mask id="mask0_613_197" style="mask-type:alpha" maskUnits="userSpaceOnUse" x="0" y="0" width="232" height="232">
<circle cx="116" cy="116" r="116" fill="#C4C4C4"/>
</mask>
<g mask="url(#mask0_613_197)">
<path fill-rule="evenodd" clip-rule="evenodd" d="M116 0C180.065 0 232 51.935 232 116C232 180.065 180.065 232 116 232C51.935 232 0 180.065 0 116C0 51.935 51.935 0 116 0ZM175.757 116C175.757 82.9969 149.003 56.2426 116 56.2426C85.3753 56.2426 56.2422 79.091 56.2422 108.97V215.444C64.9382 220.681 74.3774 224.809 84.3636 227.633V166.706C93.5384 172.442 104.382 175.757 116 175.757C149.003 175.757 175.757 149.003 175.757 116Z" fill="white"/>
<path d="M137.917 109.935C143.672 113.292 143.672 121.608 137.917 124.965L111.684 140.268C105.884 143.651 98.5999 139.467 98.5999 132.753V102.147C98.5999 95.4324 105.884 91.2488 111.684 94.6321L137.917 109.935Z" fill="white"/>
<path d="M137.917 109.935C143.672 113.292 143.672 121.608 137.917 124.965L111.684 140.268C105.884 143.651 98.5999 139.467 98.5999 132.753V102.147C98.5999 95.4324 105.884 91.2488 111.684 94.6321L137.917 109.935Z" fill="white"/>
</g>
</svg>
